{
    "asset" : {
        "generator" : "Khronos glTF Blender I/O v1.3.48",
        "version" : "2.0"
    },
    "scene" : 0,
    "scenes" : [
        {
            "name" : "Scene",
            "nodes" : [
                0
            ]
        }
    ],
    "nodes" : [
        {
            "mesh" : 0,
            "name" : "test-obj",
            "rotation" : [
                0.7071068286895752,
                0,
                0,
                0.7071067094802856
            ],
            "translation" : [
                2.711918205022812e-05,
                0.0567401647567749,
                0.00011424161493778229
            ]
        }
    ],
    "materials" : [
        {
            "doubleSided" : true,
            "emissiveFactor" : [
                0,
                0,
                0
            ],
            "name" : "FrontColor",
            "pbrMetallicRoughness" : {
                "baseColorFactor" : [
                    0.800000011920929,
                    0.800000011920929,
                    0.800000011920929,
                    1
                ],
                "metallicFactor" : 0,
                "roughnessFactor" : 0.5
            }
        },
        {
            "doubleSided" : true,
            "emissiveFactor" : [
                0,
                0,
                0
            ],
            "name" : "Color_M01",
            "pbrMetallicRoughness" : {
                "baseColorFactor" : [
                    0.800000011920929,
                    0.800000011920929,
                    0.800000011920929,
                    1
                ],
                "metallicFactor" : 0,
                "roughnessFactor" : 0.5
            }
        },
        {
            "doubleSided" : true,
            "emissiveFactor" : [
                0,
                0,
                0
            ],
            "name" : "Color_001",
            "pbrMetallicRoughness" : {
                "baseColorFactor" : [
                    0.800000011920929,
                    0.800000011920929,
                    0.800000011920929,
                    1
                ],
                "metallicFactor" : 0,
                "roughnessFactor" : 0.5
            }
        },
        {
            "doubleSided" : true,
            "emissiveFactor" : [
                0,
                0,
                0
            ],
            "name" : "Color_009",
            "pbrMetallicRoughness" : {
                "baseColorFactor" : [
                    0.800000011920929,
                    0.800000011920929,
                    0.800000011920929,
                    1
                ],
                "metallicFactor" : 0,
                "roughnessFactor" : 0.5
            }
        },
        {
            "doubleSided" : true,
            "emissiveFactor" : [
                0,
                0,
                0
            ],
            "name" : "_Color_005_1",
            "pbrMetallicRoughness" : {
                "baseColorFactor" : [
                    0.800000011920929,
                    0.800000011920929,
                    0.800000011920929,
                    1
                ],
                "metallicFactor" : 0,
                "roughnessFactor" : 0.5
            }
        },
        {
            "doubleSided" : true,
            "emissiveFactor" : [
                0,
                0,
                0
            ],
            "name" : "Color_006",
            "pbrMetallicRoughness" : {
                "baseColorFactor" : [
                    0.800000011920929,
                    0.800000011920929,
                    0.800000011920929,
                    1
                ],
                "metallicFactor" : 0,
                "roughnessFactor" : 0.5
            }
        },
        {
            "doubleSided" : true,
            "emissiveFactor" : [
                0,
                0,
                0
            ],
            "name" : "Color_007",
            "pbrMetallicRoughness" : {
                "baseColorFactor" : [
                    0.800000011920929,
                    0.800000011920929,
                    0.800000011920929,
                    1
                ],
                "metallicFactor" : 0,
                "roughnessFactor" : 0.5
            }
        },
        {
            "doubleSided" : true,
            "emissiveFactor" : [
                0,
                0,
                0
            ],
            "name" : "plastic",
            "pbrMetallicRoughness" : {
                "baseColorFactor" : [
                    0.800000011920929,
                    0.800000011920929,
                    0.800000011920929,
                    1
                ],
                "metallicFactor" : 0,
                "roughnessFactor" : 0.5
            }
        }
    ],
    "meshes" : [
        {
            "name" : "test-obj",
            "primitives" : [
                {
                    "attributes" : {
                        "POSITION" : 0,
                        "NORMAL" : 1,
                        "TEXCOORD_0" : 2
                    },
                    "indices" : 3,
                    "material" : 0
                },
                {
                    "attributes" : {
                        "POSITION" : 4,
                        "NORMAL" : 5,
                        "TEXCOORD_0" : 6
                    },
                    "indices" : 7,
                    "material" : 1
                },
                {
                    "attributes" : {
                        "POSITION" : 8,
                        "NORMAL" : 9,
                        "TEXCOORD_0" : 10
                    },
                    "indices" : 11,
                    "material" : 2
                },
                {
                    "attributes" : {
                        "POSITION" : 12,
                        "NORMAL" : 13,
                        "TEXCOORD_0" : 14
                    },
                    "indices" : 15,
                    "material" : 3
                },
                {
                    "attributes" : {
                        "POSITION" : 16,
                        "NORMAL" : 17,
                        "TEXCOORD_0" : 18
                    },
                    "indices" : 19,
                    "material" : 4
                },
                {
                    "attributes" : {
                        "POSITION" : 20,
                        "NORMAL" : 21,
                        "TEXCOORD_0" : 22
                    },
                    "indices" : 23,
                    "material" : 5
                },
                {
                    "attributes" : {
                        "POSITION" : 24,
                        "NORMAL" : 25,
                        "TEXCOORD_0" : 26
                    },
                    "indices" : 27,
                    "material" : 6
                },
                {
                    "attributes" : {
                        "POSITION" : 28,
                        "NORMAL" : 29,
                        "TEXCOORD_0" : 30
                    },
                    "indices" : 31,
                    "material" : 7
                }
            ]
        }
    ],
    "accessors" : [
        {
            "bufferView" : 0,
            "componentType" : 5126,
            "count" : 10075,
            "max" : [
                0.09026007354259491,
                0.08471205830574036,
                0.07741446793079376
            ],
            "min" : [
                -0.08913473784923553,
                -0.08385390043258667,
                -0.047215789556503296
            ],
            "type" : "VEC3"
        },
        {
            "bufferView" : 1,
            "componentType" : 5126,
            "count" : 10075,
            "type" : "VEC3"
        },
        {
            "bufferView" : 2,
            "componentType" : 5126,
            "count" : 10075,
            "type" : "VEC2"
        },
        {
            "bufferView" : 3,
            "componentType" : 5123,
            "count" : 18306,
            "type" : "SCALAR"
        },
        {
            "bufferView" : 4,
            "componentType" : 5126,
            "count" : 708,
            "max" : [
                0.09026007354259491,
                0.047698404639959335,
                0.015324410051107407
            ],
            "min" : [
                -0.08913473784923553,
                -0.046839892864227295,
                -0.008651651442050934
            ],
            "type" : "VEC3"
        },
        {
            "bufferView" : 5,
            "componentType" : 5126,
            "count" : 708,
            "type" : "VEC3"
        },
        {
            "bufferView" : 6,
            "componentType" : 5126,
            "count" : 708,
            "type" : "VEC2"
        },
        {
            "bufferView" : 7,
            "componentType" : 5123,
            "count" : 1464,
            "type" : "SCALAR"
        },
        {
            "bufferView" : 8,
            "componentType" : 5126,
            "count" : 5620,
            "max" : [
                0.07856206595897675,
                0.057629406452178955,
                0.07579877972602844
            ],
            "min" : [
                -0.07743652909994125,
                -0.056770890951156616,
                -0.006151653826236725
            ],
            "type" : "VEC3"
        },
        {
            "bufferView" : 9,
            "componentType" : 5126,
            "count" : 5620,
            "type" : "VEC3"
        },
        {
            "bufferView" : 10,
            "componentType" : 5126,
            "count" : 5620,
            "type" : "VEC2"
        },
        {
            "bufferView" : 11,
            "componentType" : 5123,
            "count" : 6252,
            "type" : "SCALAR"
        },
        {
            "bufferView" : 12,
            "componentType" : 5126,
            "count" : 104,
            "max" : [
                0.07278807461261749,
                0.047881606966257095,
                0.07579877972602844
            ],
            "min" : [
                -0.07166262716054916,
                -0.04702289402484894,
                0.05163438990712166
            ],
            "type" : "VEC3"
        },
        {
            "bufferView" : 13,
            "componentType" : 5126,
            "count" : 104,
            "type" : "VEC3"
        },
        {
            "bufferView" : 14,
            "componentType" : 5126,
            "count" : 104,
            "type" : "VEC2"
        },
        {
            "bufferView" : 15,
            "componentType" : 5123,
            "count" : 288,
            "type" : "SCALAR"
        },
        {
            "bufferView" : 16,
            "componentType" : 5126,
            "count" : 68,
            "max" : [
                0.06464707851409912,
                0.03748630732297897,
                0.06591831147670746
            ],
            "min" : [
                -0.06352172791957855,
                -0.036627888679504395,
                0.04039204865694046
            ],
            "type" : "VEC3"
        },
        {
            "bufferView" : 17,
            "componentType" : 5126,
            "count" : 68,
            "type" : "VEC3"
        },
        {
            "bufferView" : 18,
            "componentType" : 5126,
            "count" : 68,
            "type" : "VEC2"
        },
        {
            "bufferView" : 19,
            "componentType" : 5123,
            "count" : 120,
            "type" : "SCALAR"
        },
        {
            "bufferView" : 20,
            "componentType" : 5126,
            "count" : 120,
            "max" : [
                0.06464506685733795,
                0.037484705448150635,
                0.06591691076755524
            ],
            "min" : [
                -0.06351973116397858,
                -0.03662589192390442,
                0.04039344936609268
            ],
            "type" : "VEC3"
        },
        {
            "bufferView" : 21,
            "componentType" : 5126,
            "count" : 120,
            "type" : "VEC3"
        },
        {
            "bufferView" : 22,
            "componentType" : 5126,
            "count" : 120,
            "type" : "VEC2"
        },
        {
            "bufferView" : 23,
            "componentType" : 5123,
            "count" : 228,
            "type" : "SCALAR"
        },
        {
            "bufferView" : 24,
            "componentType" : 5126,
            "count" : 68,
            "max" : [
                0.06438606977462769,
                0.03728990629315376,
                0.06574761122465134
            ],
            "min" : [
                -0.06326042860746384,
                -0.036431893706321716,
                0.04056284949183464
            ],
            "type" : "VEC3"
        },
        {
            "bufferView" : 25,
            "componentType" : 5126,
            "count" : 68,
            "type" : "VEC3"
        },
        {
            "bufferView" : 26,
            "componentType" : 5126,
            "count" : 68,
            "type" : "VEC2"
        },
        {
            "bufferView" : 27,
            "componentType" : 5123,
            "count" : 132,
            "type" : "SCALAR"
        },
        {
            "bufferView" : 28,
            "componentType" : 5126,
            "count" : 21431,
            "max" : [
                0.08676506578922272,
                0.04369000717997551,
                -0.006675586104393005
            ],
            "min" : [
                -0.08603665232658386,
                -0.04391789436340332,
                -0.0163644477725029
            ],
            "type" : "VEC3"
        },
        {
            "bufferView" : 29,
            "componentType" : 5126,
            "count" : 21431,
            "type" : "VEC3"
        },
        {
            "bufferView" : 30,
            "componentType" : 5126,
            "count" : 21431,
            "type" : "VEC2"
        },
        {
            "bufferView" : 31,
            "componentType" : 5123,
            "count" : 33000,
            "type" : "SCALAR"
        }
    ],
    "bufferViews" : [
        {
            "buffer" : 0,
            "byteLength" : 120900,
            "byteOffset" : 0
        },
        {
            "buffer" : 0,
            "byteLength" : 120900,
            "byteOffset" : 120900
        },
        {
            "buffer" : 0,
            "byteLength" : 80600,
            "byteOffset" : 241800
        },
        {
            "buffer" : 0,
            "byteLength" : 36612,
            "byteOffset" : 322400
        },
        {
            "buffer" : 0,
            "byteLength" : 8496,
            "byteOffset" : 359012
        },
        {
            "buffer" : 0,
            "byteLength" : 8496,
            "byteOffset" : 367508
        },
        {
            "buffer" : 0,
            "byteLength" : 5664,
            "byteOffset" : 376004
        },
        {
            "buffer" : 0,
            "byteLength" : 2928,
            "byteOffset" : 381668
        },
        {
            "buffer" : 0,
            "byteLength" : 67440,
            "byteOffset" : 384596
        },
        {
            "buffer" : 0,
            "byteLength" : 67440,
            "byteOffset" : 452036
        },
        {
            "buffer" : 0,
            "byteLength" : 44960,
            "byteOffset" : 519476
        },
        {
            "buffer" : 0,
            "byteLength" : 12504,
            "byteOffset" : 564436
        },
        {
            "buffer" : 0,
            "byteLength" : 1248,
            "byteOffset" : 576940
        },
        {
            "buffer" : 0,
            "byteLength" : 1248,
            "byteOffset" : 578188
        },
        {
            "buffer" : 0,
            "byteLength" : 832,
            "byteOffset" : 579436
        },
        {
            "buffer" : 0,
            "byteLength" : 576,
            "byteOffset" : 580268
        },
        {
            "buffer" : 0,
            "byteLength" : 816,
            "byteOffset" : 580844
        },
        {
            "buffer" : 0,
            "byteLength" : 816,
            "byteOffset" : 581660
        },
        {
            "buffer" : 0,
            "byteLength" : 544,
            "byteOffset" : 582476
        },
        {
            "buffer" : 0,
            "byteLength" : 240,
            "byteOffset" : 583020
        },
        {
            "buffer" : 0,
            "byteLength" : 1440,
            "byteOffset" : 583260
        },
        {
            "buffer" : 0,
            "byteLength" : 1440,
            "byteOffset" : 584700
        },
        {
            "buffer" : 0,
            "byteLength" : 960,
            "byteOffset" : 586140
        },
        {
            "buffer" : 0,
            "byteLength" : 456,
            "byteOffset" : 587100
        },
        {
            "buffer" : 0,
            "byteLength" : 816,
            "byteOffset" : 587556
        },
        {
            "buffer" : 0,
            "byteLength" : 816,
            "byteOffset" : 588372
        },
        {
            "buffer" : 0,
            "byteLength" : 544,
            "byteOffset" : 589188
        },
        {
            "buffer" : 0,
            "byteLength" : 264,
            "byteOffset" : 589732
        },
        {
            "buffer" : 0,
            "byteLength" : 257172,
            "byteOffset" : 589996
        },
        {
            "buffer" : 0,
            "byteLength" : 257172,
            "byteOffset" : 847168
        },
        {
            "buffer" : 0,
            "byteLength" : 171448,
            "byteOffset" : 1104340
        },
        {
            "buffer" : 0,
            "byteLength" : 66000,
            "byteOffset" : 1275788
        }
    ],
    "buffers" : [
        {
            "byteLength" : 1341788,
            "uri" : "data:application/octet-stream;base64,"
        }
    ]
}
